<svg width="24" height="24" viewBox="0 0 24 24" fill="none" xmlns="http://www.w3.org/2000/svg">
<path d="M3 4.59375C3 4.17106 3.16462 3.76568 3.45765 3.4668C3.75067 3.16791 4.1481 3 4.5625 3H9.25C9.6644 3 10.0618 3.16791 10.3549 3.4668C10.6479 3.76568 10.8125 4.17106 10.8125 4.59375V9.375C10.8125 9.79769 10.6479 10.2031 10.3549 10.502C10.0618 10.8008 9.6644 10.9688 9.25 10.9688H4.5625C4.1481 10.9688 3.75067 10.8008 3.45765 10.502C3.16462 10.2031 3 9.79769 3 9.375V4.59375ZM3 14.9531C3 14.5304 3.16462 14.1251 3.45765 13.8262C3.75067 13.5273 4.1481 13.3594 4.5625 13.3594H9.25C9.6644 13.3594 10.0618 13.5273 10.3549 13.8262C10.6479 14.1251 10.8125 14.5304 10.8125 14.9531V19.7344C10.8125 20.1571 10.6479 20.5624 10.3549 20.8613C10.0618 21.1602 9.6644 21.3281 9.25 21.3281H4.5625C4.1481 21.3281 3.75067 21.1602 3.45765 20.8613C3.16462 20.5624 3 20.1571 3 19.7344V14.9531ZM13.1563 4.59375C13.1563 4.17106 13.3209 3.76568 13.6139 3.4668C13.9069 3.16791 14.3044 3 14.7188 3H19.4063C19.8207 3 20.2181 3.16791 20.5111 3.4668C20.8041 3.76568 20.9688 4.17106 20.9688 4.59375V9.375C20.9688 9.79769 20.8041 10.2031 20.5111 10.502C20.2181 10.8008 19.8207 10.9688 19.4063 10.9688H14.7188C14.3044 10.9688 13.9069 10.8008 13.6139 10.502C13.3209 10.2031 13.1563 9.79769 13.1563 9.375V4.59375ZM13.1563 14.9531C13.1563 14.5304 13.3209 14.1251 13.6139 13.8262C13.9069 13.5273 14.3044 13.3594 14.7188 13.3594H19.4063C19.8207 13.3594 20.2181 13.5273 20.5111 13.8262C20.8041 14.1251 20.9688 14.5304 20.9688 14.9531V19.7344C20.9688 20.1571 20.8041 20.5624 20.5111 20.8613C20.2181 21.1602 19.8207 21.3281 19.4063 21.3281H14.7188C14.3044 21.3281 13.9069 21.1602 13.6139 20.8613C13.3209 20.5624 13.1563 20.1571 13.1563 19.7344V14.9531Z" fill="white"/>
</svg>
