<svg width="512" height="512" viewBox="0 0 512 512" fill="none" xmlns="http://www.w3.org/2000/svg">
    <rect x="96" y="33" width="320" height="446" fill="white"/>
    <path fill-rule="evenodd" clip-rule="evenodd" d="M125 0C55.9644 0 0 55.9644 0 125V387C0 456.036 55.9644 512 125 512H387C456.036 512 512 456.036 512 387V125C512 55.9644 456.036 0 387 0H125ZM185.5 348.5C182.446 364.416 182.448 373.73 185 389.5H225.5C228.555 373.494 228.367 364.509 225.5 348.5C228.973 332.495 228.901 323.518 225.5 307.5H256.5C254.327 323.509 254.204 332.491 256.5 348.5H277C274.553 364.61 274.384 373.697 277 390H349C351.931 373.858 351.899 364.808 349 348.5H298C300.308 332.68 300.225 323.695 298 307.5H277.5C280.179 291.176 279.806 282.242 277.5 266.5H298.5C301.18 250.412 301.125 241.38 298.5 225.5H338.5C342.009 210.754 341.405 199.63 338.5 184.5H277.5C274.251 200.412 274.148 209.401 278 225.5H256.5C254.078 241.239 254.072 250.186 257 266.5H225.5C229.516 250.485 228.999 241.515 225.5 225.5C229.378 209.488 228.928 200.51 225.5 184.5C228.886 169.14 228.981 160.192 225.5 143.5C228.85 128.061 228.83 119.334 225.5 103.5H185.5C182.454 118.597 182.451 127.354 185.5 143.5C182.291 159.408 182.198 168.407 185.5 184.5C182.191 200.506 182.102 209.483 185.5 225.5C182.063 241.409 182.04 250.385 185.5 266.5C181.897 282.617 181.826 291.577 185.5 307.5C182.261 323.607 182.021 332.586 185.5 348.5Z" fill="#6300E1"/>
</svg>
