<svg width="512" height="512" viewBox="0 0 512 512" fill="none" xmlns="http://www.w3.org/2000/svg">
<path d="M185 389.5C182.448 373.73 182.446 364.416 185.5 348.5C182.021 332.586 182.261 323.607 185.5 307.5C181.826 291.577 181.897 282.617 185.5 266.5C182.04 250.385 182.063 241.409 185.5 225.5C182.102 209.483 182.191 200.506 185.5 184.5C182.198 168.407 182.291 159.408 185.5 143.5C182.451 127.354 182.454 118.597 185.5 103.5H225.5C228.83 119.334 228.85 128.061 225.5 143.5C228.981 160.192 228.886 169.14 225.5 184.5C228.928 200.51 229.378 209.488 225.5 225.5C228.999 241.515 229.516 250.485 225.5 266.5H257C254.072 250.186 254.078 241.239 256.5 225.5H278C274.148 209.401 274.251 200.412 277.5 184.5H338.5C341.405 199.63 342.009 210.754 338.5 225.5H298.5C301.125 241.38 301.18 250.412 298.5 266.5H277.5C279.806 282.242 280.179 291.176 277.5 307.5H298C300.225 323.695 300.308 332.68 298 348.5H349C351.899 364.808 351.931 373.858 349 390H277C274.384 373.697 274.553 364.61 277 348.5H256.5C254.204 332.491 254.327 323.509 256.5 307.5H225.5C228.901 323.518 228.973 332.495 225.5 348.5C228.367 364.509 228.555 373.494 225.5 389.5H185Z" fill="#6700EA"/>
</svg>
